<svg xmlns="http://www.w3.org/2000/svg" viewBox="0 0 129.33 70.16"><defs><style>.cls-1{fill:#43413f;}</style></defs><g id="Layer_2" data-name="Layer 2"><g id="Layer_1-2" data-name="Layer 1"><path class="cls-1" d="M15.49,63.11H12.43L3.28,47.86V63.11H0V41.8H3.15l9.06,15.13V41.8h3.28Z"/><path class="cls-1" d="M23.07,70.16H19.73l3.13-7.73L17.14,48.67h3.4l4,9.89,4.05-9.89H32Z"/><path class="cls-1" d="M46.49,57H35a4.19,4.19,0,0,0,4.42,3.62,4.42,4.42,0,0,0,3.92-2.08c.81.38,1.77.78,2.6,1.15a7.19,7.19,0,0,1-6.68,3.71,7.26,7.26,0,0,1-7.42-7.58,7.18,7.18,0,0,1,7.42-7.48c4.12,0,7.24,2.91,7.24,7.48C46.52,56.18,46.52,56.71,46.49,57ZM43.4,54.7a3.93,3.93,0,0,0-4.12-3.56A4,4,0,0,0,35,54.7Z"/><path class="cls-1" d="M69,41.8V63.11H65.63V54H56v9.09H52.74V41.8H56V51h9.61V41.8Z"/><polygon class="cls-1" points="99.75 48.67 99.75 43.19 96.57 43.19 96.57 48.67 90.91 48.67 90.91 43.19 87.72 43.19 87.72 48.67 82.09 48.67 78.04 58.56 74.02 48.67 70.61 48.67 76.34 62.43 73.21 70.16 76.55 70.16 84.4 51.3 87.72 51.3 87.72 63.11 90.91 63.11 90.91 51.3 96.57 51.3 96.57 63.11 99.75 63.11 99.75 51.3 102.81 51.3 102.81 48.67 99.75 48.67"/><path class="cls-1" d="M117.75,57H106.28a4.2,4.2,0,0,0,4.42,3.62,4.44,4.44,0,0,0,3.93-2.08c.81.38,1.76.78,2.6,1.15a7.58,7.58,0,0,1-14.1-3.87,7.18,7.18,0,0,1,7.42-7.48c4.11,0,7.24,2.91,7.24,7.48A11.34,11.34,0,0,1,117.75,57Zm-3.09-2.32a3.92,3.92,0,0,0-4.11-3.56,4.05,4.05,0,0,0-4.27,3.56Z"/><path class="cls-1" d="M122.8,63.11h-3.19V48.67h3.19V52c.74-2.57,2.17-3.62,4-3.62a5.47,5.47,0,0,1,2.57.56l-.53,2.93a4.64,4.64,0,0,0-2.13-.49c-2.73,0-3.87,2.72-3.87,6.56Z"/><polygon class="cls-1" points="79.5 0 40.95 20.77 26.4 13.13 0 26.98 0 30.77 26.4 16.91 52.74 30.74 52.74 26.95 44.52 22.64 79.5 3.8 129.32 30.65 129.32 26.84 79.5 0"/></g></g></svg>